<svg id="SvgjsSvg11167" width="24" height="23" xmlns="http://www.w3.org/2000/svg" version="1.1" xmlns:xlink="http://www.w3.org/1999/xlink" xmlns:svgjs="http://svgjs.com/svgjs" viewBox="0 0.01983642578125 23.99993896484375 22.96026611328125" fill="#ffffff" opacity="1"><defs id="SvgjsDefs11168"></defs><svg version="1.1" xmlns="http://www.w3.org/2000/svg" xmlns:xlink="http://www.w3.org/1999/xlink" width="24" height="23" viewBox="1.99995 1.99991 22.9963 22.0001"><g><path fill="#ffffff" stroke="none" paint-order="stroke fill markers" fill-rule="evenodd" d=" M 2.8506317138671875 3.7934069633483887 C 2.8506317138671875 3.7934069633483887 5.289463043212891 3.7934069633483887 5.289463043212891 3.7934069633483887 C 5.289463043212891 3.7934069633483887 8.763317108154297 17.035116314888 8.763317108154297 17.035116314888 C 8.862499237060547 17.423729956150055 9.202770233154297 17.69268798828125 9.585670471191406 17.69268798828125 C 9.585670471191406 17.69268798828125 20.262340545654297 17.69268798828125 20.262340545654297 17.69268798828125 C 20.602706909179688 17.69268798828125 20.90044403076172 17.483557760715485 21.042160034179688 17.15477192401886 C 21.042160034179688 17.15477192401886 24.92723846435547 7.739104092121124 24.92723846435547 7.739104092121124 C 25.040630340576172 7.454922020435333 25.012306213378906 7.141093134880066 24.856285095214844 6.887092053890228 C 24.700359344482422 6.633090972900391 24.430946350097656 6.483521461486816 24.147323608398438 6.483521461486816 C 24.147323608398438 6.483521461486816 12.350563049316406 6.483521461486816 12.350563049316406 6.483521461486816 C 11.88259506225586 6.483521461486816 11.49979019165039 6.887092053890228 11.49979019165039 7.380404353141785 C 11.49979019165039 7.8734495639801025 11.88259506225586 8.277020156383514 12.350563049316406 8.277020156383514 C 12.350563049316406 8.277020156383514 22.84298324584961 8.277020156383514 22.84298324584961 8.277020156383514 C 22.84298324584961 8.277020156383514 19.69528579711914 15.899189293384552 19.69528579711914 15.899189293384552 C 19.69528579711914 15.899189293384552 10.223678588867188 15.899189293384552 10.223678588867188 15.899189293384552 C 10.223678588867188 15.899189293384552 6.749919891357422 2.65747994184494 6.749919891357422 2.65747994184494 C 6.650642395019531 2.2688663005828857 6.310371398925781 1.9999082684516907 5.9275665283203125 1.9999082684516907 C 5.9275665283203125 1.9999082684516907 2.8506317138671875 1.9999082684516907 2.8506317138671875 1.9999082684516907 C 2.3827590942382812 1.9999082684516907 1.9999542236328125 2.4034788608551025 1.9999542236328125 2.8965240716934204 C 1.9999542236328125 3.389836370944977 2.3827590942382812 3.7934069633483887 2.8506317138671875 3.7934069633483887 Z M 8.77743148803711 23.999980866909027 C 9.840873718261719 23.999980866909027 10.705760955810547 23.0881410241127 10.705760955810547 21.96717095375061 C 10.705760955810547 20.846467971801758 9.840873718261719 19.934628129005432 8.77743148803711 19.934628129005432 C 7.7139892578125 19.934628129005432 6.849102020263672 20.84620088338852 6.849102020263672 21.96717095375061 C 6.849102020263672 23.0881410241127 7.7139892578125 23.999980866909027 8.77743148803711 23.999980866909027 Z M 20.829586029052734 23.999980866909027 C 20.872119903564453 23.999980866909027 20.928768157958984 23.999980866909027 20.971302032470703 23.999980866909027 C 21.48180389404297 23.955110013484955 21.949676513671875 23.716065883636475 22.289947509765625 23.297538340091705 C 22.630313873291016 22.893967747688293 22.786239624023438 22.370741546154022 22.757915496826172 21.817868530750275 C 22.686962127685547 20.71185541152954 21.765426635742188 19.859843373298645 20.701984405517578 19.934628129005432 C 19.63854217529297 20.00941288471222 18.844512939453125 20.995770394802094 18.91537094116211 22.101783514022827 C 18.986324310302734 23.16292577981949 19.822887420654297 23.999980866909027 20.829586029052734 23.999980866909027 Z"></path></g></svg></svg>